<svg xmlns="http://www.w3.org/2000/svg" width="45" height="45" viewBox="0 0 45 45"><g stroke="#000" stroke-width="1.5" stroke-linecap="round" stroke-linejoin="round"><path d="M18 17.5L9.8 11" fill="none" stroke="#000" stroke-width="8.2"/><path d="M27 16.5L35.8 12.8" fill="none" stroke="#000" stroke-width="8.2"/><path d="M19 27L12.5 35.8" fill="none" stroke="#000" stroke-width="8.6"/><path d="M24.5 27.5L30 35.3" fill="none" stroke="#000" stroke-width="8.6"/><path d="M24.5 15L26 9.5" fill="none" stroke="#000" stroke-width="8"/><g fill="#000" stroke="#000" stroke-width="3"><circle cx="26.2" cy="8.6" r="4.4"/></g><g fill="#000" stroke="#000" stroke-width="3"><ellipse cx="21.8" cy="22" rx="6.8" ry="8.2" transform="rotate(18 21.8 22)"/></g><path d="M18 17.5L9.8 11" fill="none" stroke="#000" stroke-width="5.2"/><path d="M27 16.5L35.8 12.8" fill="none" stroke="#000" stroke-width="5.2"/><path d="M19 27L12.5 35.8" fill="none" stroke="#000" stroke-width="5.6"/><path d="M24.5 27.5L30 35.3" fill="none" stroke="#000" stroke-width="5.6"/><path d="M24.5 15L26 9.5" fill="none" stroke="#000" stroke-width="5"/><g fill="#000" stroke="none"><circle cx="26.2" cy="8.6" r="4.4"/></g><g fill="#000" stroke="none"><ellipse cx="21.8" cy="22" rx="6.8" ry="8.2" transform="rotate(18 21.8 22)"/></g><g fill="none" stroke="#fff"><ellipse cx="21.6" cy="22.4" rx="2.9" ry="4" transform="rotate(18 21.6 22.4)"/></g><g fill="none" stroke="#fff"><ellipse cx="21.6" cy="22.4" rx="1" ry="1.7" transform="rotate(18 21.6 22.4)"/></g></g></svg>