<svg xmlns="http://www.w3.org/2000/svg" width="45" height="45" viewBox="0 0 45 45"><g stroke="#000" stroke-width="1.5" stroke-linecap="round" stroke-linejoin="round"><g fill="#000"><path d="M9 36c3.39-.97 10.11.43 13.5-2 3.39 2.43 10.11 1.03 13.5 2 0 0 1.65.54 3 2-.68.97-1.65.99-3 .5-3.39-.97-10.11.46-13.5-1-3.39 1.46-10.11.03-13.5 1-1.35.49-2.32.47-3-.5 1.35-1.94 3-2 3-2z"/></g><g fill="#000"><path d="M10 31L7 9l6 8 2-13 4.5 11 3-14 3 14 4.5-11 2 13 6-8-3 22z"/></g><g fill="#000"><path d="M9.5 30.5h26v4h-26z"/></g><g fill="none" stroke="#fff"><path d="M22.5 27c-3 0-4.5-2-4.5-4s2-3.5 4-3.5 3 1 3 2.5-1 2.5-2.5 2.5-1.5-.5-1.5-1.5"/></g><g fill="none" stroke="#fff"><circle cx="12.5" cy="26" r="1" fill="#fff"/><circle cx="32.5" cy="26" r="1" fill="#fff"/></g></g></svg>