<svg xmlns="http://www.w3.org/2000/svg" viewBox="0 0 45 45"><g transform="translate(22.5 25) rotate(-38)" stroke="#000" stroke-width="1.1" stroke-linejoin="round" stroke-linecap="round"><path fill="#5a3a22" d="M-21-1.5l7-2.2h6v5.6h-6l-7 1.8c-.8.2-1.4-.3-1.4-1.1v-3c0-.6.6-1.1 1.4-1.1z"/><path fill="none" stroke="#2c1a0c" stroke-width=".7" d="M-18-2.4l1.6 4.4M-15.6-3l1.6 4.6M-13-3.4l1.4 4.8"/><path fill="#575d63" d="M-8.5-3.4h8v5.8h-8z"/><path fill="#7c838a" d="M-.5-2.6h20v2.8h-20z"/><path fill="#4a6b2e" d="M6.2 5.4a3 3 0 1 0 0 .01z"/><path fill="none" stroke-width=".8" d="M6 .3v2M4.5 1.5h3"/><circle cx="8.6" cy="3" r=".9" fill="none" stroke-width=".7"/></g></svg>