<svg xmlns="http://www.w3.org/2000/svg" width="45" height="45" viewBox="0 0 45 45"><g stroke="#000" stroke-width="1.5" stroke-linecap="round" stroke-linejoin="round"><g fill="#fff" stroke="#000"><path d="M22.5 1C21 5 18.6 7.6 18 11c-2-2-3-4.6-2.6-7.2C9.6 7 6 13 6 21.2c0 11 7.4 20 16.5 20S39 32.2 39 21.2c0-8.2-3.6-14.2-9.4-17.4.4 2.6-.6 5.2-2.6 7.2-.6-3.6-3-6.4-4.5-10z"/></g><g fill="#fff" stroke="#000"><path d="M22.5 13c-6 0-10 4-10 9.6 0 3.4 1.4 6 4 7.6v3.8c0 1.6 1 2.6 2.6 2.6h6.8c1.6 0 2.6-1 2.6-2.6v-3.8c2.6-1.6 4-4.2 4-7.6 0-5.6-4-9.6-10-9.6z"/></g><g fill="#000" stroke="#000"><circle cx="18.7" cy="23.4" r="2.6"/><circle cx="26.3" cy="23.4" r="2.6"/><path d="M22.5 26.8l1.3 2.4h-2.6z"/></g><g fill="none" stroke="#000"><path d="M19.8 31.6v4.4M22.5 31.6v4.4M25.2 31.6v4.4"/></g></g></svg>