<svg xmlns="http://www.w3.org/2000/svg" width="45" height="45" viewBox="0 0 45 45"><g stroke="#000" stroke-width="1.5" stroke-linecap="round" stroke-linejoin="round"><g fill="#fff" stroke="#000"><g transform="rotate(-47 22.5 22.5)"><path d="M17.8 24.4c0 2.2 1.6 3.4 3.6 3" fill="none"/></g></g><g fill="#fff" stroke="#000"><g transform="rotate(-47 22.5 22.5)"><path d="M1 19.2c3.4-1.2 7.4-1.6 11.2-1.6l3.4 1.6v5.6l-3.4.8c-3.8 1-7.8 1.6-11.2 1.6-.7-2.4-.7-5.6 0-8z"/><path d="M15 19.2h14.2v5H15z"/><path d="M28.8 20.2h15.2v3H28.8z"/></g></g><g fill="#fff" stroke="#000"><g transform="rotate(-47 22.5 22.5)"><path d="M15.8 19.4l1.2-3.4 2.4.6-.8 2.8z"/></g></g><g fill="none" stroke="#000"><g transform="rotate(-47 22.5 22.5)"><path d="M40.6 21v1.4M3.8 20.4v5.8"/></g></g></g></svg>