<svg xmlns="http://www.w3.org/2000/svg" width="45" height="45" viewBox="0 0 45 45"><g stroke="#000" stroke-width="1.5" stroke-linecap="round" stroke-linejoin="round"><path fill="#fff" d="M8.5 37.6c-.8-9.8 4.6-21 14-21s14.8 11.2 14 21c-1.2 1.2-2.6 1.2-3.6.2-1 1.4-2.8 1.4-3.8 0-1.2 1.4-3 1.4-4.2 0-1.2 1.4-3 1.4-4.2 0-1 1.4-2.8 1.4-3.8 0-1 1-2.4 1-4.4-.2z"/><path fill="none" stroke="#000" d="M14.8 25.6c.8-2.6 2.4-4.6 4.4-5.6"/><g fill="#000" stroke="none"><ellipse cx="18.6" cy="28.4" rx="1.8" ry="2.4"/><ellipse cx="26.4" cy="28.4" rx="1.8" ry="2.4"/></g><path fill="#fff" d="M33.2 12.6c1.8 2.4 2.6 4 2.6 5.2 0 1.4-1.2 2.4-2.6 2.4s-2.6-1-2.6-2.4c0-1.2.8-2.8 2.6-5.2z"/></g></svg>