<svg xmlns="http://www.w3.org/2000/svg" viewBox="0 0 100 100"><g fill="#f4f0e6" stroke="#17131c" stroke-width="3.6" stroke-linejoin="round" stroke-linecap="round"><path d="M86 4Q66 50 86 96" fill="none"/><path d="M86 4L86 96" fill="none" stroke-width="1.6"/><path d="M20 46C18 18 32 8 50 8S82 18 80 46Z"/><path d="M22 44C34 38 66 38 78 44L78 50C66 44 34 44 22 50Z" fill="#c8242e"/><path d="M22 48L14 82L28 80L30 54Z"/><g transform="translate(100 0) scale(-1 1)"><path d="M22 48L14 82L28 80L30 54Z"/></g><path d="M30 50C30 76 40 86 50 86S70 76 70 50C62 46 38 46 30 50Z"/><circle cx="41" cy="60" r="3" fill="#17131c"/><circle cx="59" cy="60" r="3" fill="#17131c"/><path d="M44 74Q50 77 56 74" fill="none"/><path d="M58 12C64 4 74 2 78 6C72 8 66 12 62 18Z" fill="#c8242e"/></g></svg>